<?xml version="1.0" encoding="UTF-8"?>
<svg xmlns="http://www.w3.org/2000/svg" xmlns:xlink="http://www.w3.org/1999/xlink" width="1280pt" height="720pt" viewBox="0 0 1280 720" version="1.1">
<defs>
<g>
<symbol overflow="visible" id="glyph0-0">
<path style="stroke:none;" d="M 0.695312 0 L 0.695312 -4.167969 L 4.863281 -4.167969 L 4.863281 0 Z M 1.042969 -0.347656 L 4.515625 -0.347656 L 4.515625 -3.820312 L 1.042969 -3.820312 Z "/>
</symbol>
<symbol overflow="visible" id="glyph0-1">
<path style="stroke:none;" d="M 3.503906 -1.132812 L 3.429688 0 L 0.234375 0 L 0.234375 -0.191406 C 0.289062 -0.195312 0.359375 -0.203125 0.449219 -0.214844 C 0.539062 -0.226562 0.597656 -0.238281 0.625 -0.253906 C 0.683594 -0.277344 0.722656 -0.3125 0.746094 -0.355469 C 0.765625 -0.398438 0.777344 -0.453125 0.78125 -0.523438 L 0.78125 -3.289062 C 0.777344 -3.34375 0.769531 -3.398438 0.75 -3.449219 C 0.730469 -3.492188 0.6875 -3.53125 0.625 -3.5625 C 0.574219 -3.585938 0.507812 -3.605469 0.429688 -3.625 C 0.34375 -3.640625 0.28125 -3.652344 0.234375 -3.65625 L 0.234375 -3.847656 L 3.210938 -3.847656 L 3.210938 -2.921875 L 3.007812 -2.921875 C 2.96875 -3.058594 2.890625 -3.203125 2.773438 -3.359375 C 2.648438 -3.511719 2.535156 -3.597656 2.429688 -3.613281 C 2.371094 -3.617188 2.304688 -3.621094 2.230469 -3.628906 C 2.148438 -3.628906 2.058594 -3.632812 1.964844 -3.636719 L 1.359375 -3.636719 L 1.359375 -2.105469 L 1.792969 -2.105469 C 1.933594 -2.101562 2.035156 -2.117188 2.097656 -2.144531 C 2.160156 -2.167969 2.214844 -2.210938 2.269531 -2.277344 C 2.304688 -2.328125 2.339844 -2.398438 2.367188 -2.484375 C 2.394531 -2.570312 2.414062 -2.652344 2.425781 -2.734375 L 2.628906 -2.734375 L 2.628906 -1.226562 L 2.425781 -1.226562 C 2.417969 -1.308594 2.398438 -1.402344 2.367188 -1.5 C 2.335938 -1.597656 2.300781 -1.667969 2.269531 -1.710938 C 2.207031 -1.78125 2.144531 -1.824219 2.074219 -1.847656 C 2.003906 -1.867188 1.910156 -1.878906 1.792969 -1.882812 L 1.359375 -1.882812 L 1.359375 -0.730469 C 1.359375 -0.609375 1.367188 -0.515625 1.382812 -0.453125 C 1.398438 -0.382812 1.429688 -0.335938 1.480469 -0.304688 C 1.523438 -0.269531 1.585938 -0.246094 1.671875 -0.238281 C 1.75 -0.226562 1.867188 -0.222656 2.019531 -0.222656 C 2.078125 -0.222656 2.15625 -0.222656 2.253906 -0.222656 C 2.351562 -0.222656 2.433594 -0.226562 2.5 -0.234375 C 2.566406 -0.242188 2.636719 -0.253906 2.714844 -0.273438 C 2.785156 -0.289062 2.839844 -0.316406 2.871094 -0.351562 C 2.953125 -0.4375 3.039062 -0.566406 3.132812 -0.742188 C 3.222656 -0.917969 3.28125 -1.046875 3.308594 -1.132812 Z "/>
</symbol>
</g>
</defs>
<g id="surface16">
<g style="fill:rgb(100%,100%,100%);fill-opacity:1;">
  <use xlink:href="#glyph0-1" x="30" y="25.094727"/>
</g>
</g>
</svg>
